HIERARCHY
ROOT Hips
{
	OFFSET 0.000000 0.000000 0.000000 
	CHANNELS 6 Xposition Yposition Zposition Yrotation Zrotation Xrotation 
	JOINT Lumbar
	{
		OFFSET 0.000000 0.000000 0.000000 
		CHANNELS 3 Zrotation Xrotation Yrotation
		JOINT Neck
		{
			OFFSET 0.000000 0.445665 0.000000 
			CHANNELS 3 Zrotation Xrotation Yrotation
			End Site
			{
				OFFSET 0.000000 0.227535 0.000000 
			}
		}
		JOINT RightShoulder
		{
			OFFSET 0.019635 0.377685 0.194865 
			CHANNELS 3 Zrotation Xrotation Yrotation
			JOINT RightElbow
			{
				OFFSET 0.000000 -0.243375 0.000000 
				CHANNELS 2 Zrotation Yrotation
				JOINT RightWrist
				{
					OFFSET 0.000000 -0.264825 0.000000 
					CHANNELS 2 Zrotation Xrotation
					End Site
					{
						OFFSET 0.006600 -0.176220 0.000990 
					}
				}
			}
		}
		JOINT LeftShoulder
		{
			OFFSET 0.019635 0.377685 -0.194865 
			CHANNELS 3 Zrotation Xrotation Yrotation
			JOINT LeftElbow
			{
				OFFSET 0.000000 -0.243375 0.000000 
				CHANNELS 2 Zrotation Yrotation
				JOINT LeftWrist
				{
					OFFSET 0.000000 -0.264825 0.000000 
					CHANNELS 2 Zrotation Xrotation
					End Site
					{
						OFFSET 0.006600 -0.176220 -0.000990 
					}
				}
			}
		}
	}
	JOINT RightHip
	{
		OFFSET 0.052140 -0.069960 0.075570 
		CHANNELS 3 Zrotation Xrotation Yrotation
		JOINT RightKnee
		{
			OFFSET 0.000000 -0.402270 0.000000 
			CHANNELS 1 Zrotation
			JOINT RightAnkle
			{
				OFFSET 0.000000 -0.404085 0.000000 
				CHANNELS 3 Zrotation Xrotation Yrotation
				End Site
				{
					OFFSET 0.204105 -0.089430 0.008415 
				}
			}
		}
	}
	JOINT LeftHip
	{
		OFFSET 0.052140 -0.069960 -0.075570 
		CHANNELS 3 Zrotation Xrotation Yrotation
		JOINT LeftKnee
		{
			OFFSET 0.000000 -0.402270 0.000000 
			CHANNELS 1 Zrotation
			JOINT LeftAnkle
			{
				OFFSET 0.000000 -0.404085 0.000000 
				CHANNELS 3 Zrotation Xrotation Yrotation
				End Site
				{
					OFFSET 0.204105 -0.089430 -0.008415 
				}
			}
		}
	}
}
MOTION
Frames: 20
Frame Time: 0.02
0.04788 0.92056 -0.65601 335.92259 0 -5.92251 1.83644 4.04769 3.76614 -4.14317 -6.44099 -0.04645 10.57331 -27.4743 35.91815 65.73076 31.32925 30.53046 -11.43623 -2.03994 17.9579 -17.71047 9.01267 -78.634 -4.30501 1.49262 -10.41183 8.19838 13.94248 -18.50787 6.57953 -0.06803 4.23613 19.60398 2.03971 -10.18541 -17.64892 2.55262 2.94664 3.9808
0.06648 0.92224 -0.6532 335.55804 0 -5.59204 2.42738 3.62263 3.97279 -4.76941 -5.98762 -0.14835 10.3739 -27.9224 35.392 65.96241 31.53502 30.89474 -11.32484 -0.95883 17.83541 -16.28678 8.7206 -78.56048 -4.26887 1.38271 -10.15032 7.57234 13.45693 -20.4936 5.43197 0.05466 5.13802 18.72293 1.51846 -9.77507 -18.03278 2.61981 3.04428 3.95374
0.08528 0.92441 -0.65015 335.24248 0 -5.27872 3.06245 3.19367 4.22061 -5.49658 -5.42477 -0.2805 10.15807 -28.45058 34.72716 66.22093 31.86416 31.24227 -11.18535 0.27893 17.61392 -14.61737 8.40912 -78.43289 -4.22157 1.23797 -9.64693 6.96606 12.87525 -22.8191 3.95954 0.15212 6.1905 17.66364 1.11046 -8.6173 -18.1643 2.9626 3.12407 3.63787
0.10391 0.92633 -0.64724 334.90348 0 -4.96478 3.67057 2.77677 4.43425 -6.17239 -4.91189 -0.38951 9.96286 -28.9502 34.14269 66.47134 32.13168 31.58914 -11.06153 1.44622 17.43205 -13.06818 8.11111 -78.33015 -4.18525 1.1159 -9.21537 6.35478 12.3364 -25.02346 2.61038 0.25189 7.17259 16.68311 0.65698 -7.81728 -18.40042 3.17897 3.20253 3.44892
0.12292 0.92837 -0.64421 334.56984 0 -4.61675 4.31318 2.314 4.71288 -6.87875 -4.39696 -0.5375 9.71465 -29.42093 33.48417 66.70556 32.42185 31.97224 -10.92547 2.61802 17.27244 -11.46465 7.78986 -78.22749 -4.12434 0.96431 -8.94415 5.7205 11.79709 -27.09647 1.34249 0.38909 8.16896 15.7086 0.17113 -6.95546 -18.69517 3.39002 3.32333 3.29056
0.14116 0.93027 -0.64136 334.23846 0 -4.34536 4.89106 1.94632 4.86518 -7.54097 -3.86027 -0.61293 9.57206 -29.96913 32.94827 66.97907 32.69455 32.27459 -10.80831 3.81342 17.04307 -9.92814 7.5144 -78.11081 -4.11159 0.86653 -8.28165 5.14281 11.23746 -29.51544 -0.14926 0.44438 9.16377 14.68092 -0.21762 -6.04183 -18.80147 3.68047 3.35126 2.99644
0.15743 0.93167 -0.63912 333.87764 0 -4.28039 5.29524 1.84853 4.6696 -8.07657 -3.29612 -0.46587 9.72299 -30.71318 32.77221 67.35954 32.88738 32.36818 -10.7491 5.05137 16.64551 -8.5738 7.36282 -77.97545 -4.23774 0.9217 -6.59905 4.69715 10.64495 -32.86106 -2.35694 0.25905 10.18041 13.54552 -0.36606 -5.13638 -18.45168 4.13653 3.12093 2.38194
0.17289 0.93291 -0.63707 333.52158 0 -4.29282 5.62908 1.84606 4.34386 -8.55948 -2.71315 -0.24737 9.98026 -31.53156 32.72636 67.77775 33.05864 32.37926 -10.71007 6.3036 16.18107 -7.30955 7.25992 -77.82669 -4.41207 1.03303 -4.53161 4.31217 10.03561 -36.5287 -4.74551 -0.00477 11.17719 12.3642 -0.4194 -4.20795 -17.91833 4.66217 2.79852 1.64183
0.1886 0.93421 -0.63492 333.1784 0 -4.27079 5.98436 1.7959 4.07038 -9.05297 -2.13503 -0.07121 10.19059 -32.31432 32.62959 68.1751 33.24097 32.42127 -10.66249 7.53848 15.74731 -6.04629 7.13972 -77.67919 -4.56232 1.12147 -2.63871 3.91257 9.43518 -40.01741 -6.93343 -0.21841 12.14341 11.20708 -0.5155 -3.30841 -17.46487 5.14842 2.52182 0.96783
0.20479 0.93556 -0.63284 332.77303 0 -4.24561 6.38634 1.76302 3.82641 -9.6076 -1.56806 0.14539 10.3968 -33.1077 32.49445 68.58842 33.42266 32.48997 -10.61126 8.82591 15.30934 -4.59452 6.99777 -77.54927 -4.72163 1.19766 -0.73577 3.45827 8.82738 -43.67093 -9.63009 -0.49145 13.28742 10.02893 -0.61074 -2.30555 -17.01722 5.67641 2.22805 0.24586
0.2198 0.93676 -0.63065 332.49819 0 -4.24602 6.67294 1.7181 3.49078 -10.01965 -0.97559 0.29534 10.63419 -33.89557 32.47032 68.97791 33.59843 32.48429 -10.57284 10.0038 14.86499 -3.56339 6.91377 -77.38142 -4.87338 1.31304 1.23062 3.13282 8.23045 -47.03402 -11.30924 -0.66248 14.04768 8.88686 -0.68536 -1.52173 -16.51783 6.13103 1.94841 -0.4023
0.23186 0.93759 -0.62814 332.57781 0 -4.29074 6.66446 1.60596 2.92306 -10.06142 -0.31163 0.24219 10.95535 -34.64935 32.73551 69.28544 33.76709 32.28847 -10.56456 10.88564 14.4243 -3.64513 6.97133 -77.10301 -4.99496 1.52407 3.30878 3.14232 7.68484 -49.67446 -10.10605 -0.50351 13.81053 7.84967 -0.7378 -1.35461 -15.91498 6.36026 1.7283 -0.81474
0.24276 0.93826 -0.62551 332.78915 0 -4.35969 6.54084 1.48039 2.26956 -9.95876 0.37561 0.12004 11.29935 -35.39475 33.10573 69.56905 33.92913 32.02181 -10.56864 11.65336 13.97894 -4.15327 7.08693 -76.78925 -5.10685 1.77251 5.42951 3.28045 7.14907 -51.97744 -7.87879 -0.24462 13.17692 6.85253 -0.77131 -1.41126 -15.26889 6.51305 1.52602 -1.14716
0.25414 0.93899 -0.62292 332.94323 0 -4.42253 6.46561 1.36806 1.66203 -9.91511 1.04809 0.03052 11.61804 -36.14402 33.4192 69.86775 34.09103 31.79071 -10.56738 12.46688 13.53317 -4.48499 7.18028 -76.49744 -5.22163 2.00327 7.51067 3.36358 6.59672 -54.33306 -6.1341 -0.05026 12.68571 5.84176 -0.80631 -1.36514 -14.64712 6.70314 1.31699 -1.51584
0.26567 0.93975 -0.62038 333.08701 0 -4.46802 6.40474 1.22914 1.01986 -9.89875 1.73947 -0.06231 12.00552 -36.89562 33.77591 70.14912 34.26575 31.54189 -10.56571 13.30951 13.09627 -4.74664 7.25763 -76.17869 -5.34454 2.23902 9.69503 3.43427 6.09064 -57.13691 -4.313 0.22267 12.35116 4.80948 -0.86735 -1.32237 -13.99804 6.88467 1.09909 -1.8904
0.27664 0.94042 -0.61772 333.28287 0 -4.55358 6.2873 1.1409 0.43194 -9.79058 2.39607 -0.16502 12.2512 -37.63946 34.06494 70.46147 34.41223 31.31504 -10.56748 14.06056 12.63996 -5.25404 7.38181 -75.90984 -5.44749 2.47232 11.6642 3.5606 5.49605 -58.90832 -2.41854 0.35594 11.5992 3.83274 -0.87165 -1.32604 -13.39928 7.06539 0.90504 -2.23093
0.28637 0.94097 -0.6148 333.5953 0 -4.75037 6.04399 1.19762 0.00885 -9.47558 2.9567 -0.28323 12.12094 -38.36317 34.14872 70.85604 34.48407 31.15962 -10.57656 14.61678 12.13743 -6.3388 7.61768 -75.76988 -5.49778 2.69068 13.07138 3.80867 4.60859 -58.03346 -0.45642 0.08695 9.76837 2.99509 -0.71835 -1.40545 -12.94082 7.25798 0.77354 -2.50524
0.29559 0.94144 -0.61175 333.95457 0 -4.98491 5.74774 1.30499 -0.35485 -9.07128 3.48035 -0.40843 11.8427 -39.07925 34.15889 71.28416 34.52751 31.03031 -10.58844 15.07859 11.61456 -7.65516 7.89885 -75.68423 -5.52774 2.90444 14.2504 4.10778 3.63987 -56.10797 1.52487 -0.32653 7.53662 2.21313 -0.51024 -1.52366 -12.53744 7.45295 0.66575 -2.7458
0.30503 0.94192 -0.60873 334.28917 0 -5.1977 5.47461 1.3876 -0.74129 -8.70072 4.01704 -0.52739 11.61777 -39.79877 34.19716 71.70275 34.58286 30.8939 -10.59841 15.56437 11.09741 -8.86307 8.16155 -75.5859 -5.56708 3.11981 15.5042 4.38382 2.73935 -54.58023 3.4208 -0.6793 5.50238 1.40875 -0.33121 -1.6228 -12.1155 7.64932 0.54683 -2.99585
0.31446 0.9425 -0.60581 334.6429 0 -5.43136 5.20117 1.47725 -1.14907 -8.35411 4.57042 -0.66152 11.45253 -40.51764 34.26129 72.09634 34.64205 30.73527 -10.61148 16.12806 10.59547 -10.09949 8.41826 -75.43764 -5.60676 3.34003 16.8826 4.66501 1.70937 -53.37249 5.67046 -1.01001 3.3853 0.59318 -0.13339 -1.73571 -11.66351 7.83223 0.4298 -3.26811
